Patient4_TMGait_0pt2_02_right_16_EMG.mot
version=1
nRows=23
nColumns=33
inDegrees=no
endheader
time	1LAddLong	2LGlutMax	3LGlutMed	4LIliopsoas	5LSemiMemb	6LBicFemLong	7LRecFem	8LVastMed	9LVastLat	10LGasMed	11LTibAnt	12lTibPost	13LPeroneusLong	14LSol	15LExtDigLong	16LFlexDigLong	17RAddLong	18RGlutMax	19RGlutMed	20RIliopsoas	21RSemiMemb	22RBicFemLong	23RRecFem	24RVastMed	25RVastLat	26RGasMed	27RTibAnt	28RTibPost	29RPeroneusLong	30RSol	31RExtDigLong	32RFlexDigLong
36.33	0.011139	0.071259	0.010529	-0.021057	0.026093	0.041809	0.021362	0.003662	-0.001068	0.023041	-0.007019	-0.008087	0.062103	0.12283	-0.028229	-0.053558	-0.035095	-0.13672	-0.39566	0.025787	0.21072	0.019379	-0.10284	0.20279	0.046387	0.008087	-0.004272	0.001831	-0.14358	-0.011444	0.001373	-0.002594
36.331	0.006104	0.052643	0.002136	-0.002441	0.016937	0.03479	0.019989	0.00473	-0.003815	0.05249	-0.009003	-0.023041	0.057373	0.18707	-0.036926	-0.050354	-0.02243	-0.11734	-0.24414	0.011292	0.015717	0.09079	-0.072937	0.3479	0.15396	0.026245	-0.028992	-0.001984	-0.071564	0	0.003967	0.001373
36.332	0.007782	0.043945	0.018005	0.001678	0.009155	0.040436	0.027466	0.003815	-0.005341	-0.085144	-0.00351	-0.01709	0.065308	0.18829	-0.004272	-0.055237	0.022125	-0.098419	-0.21866	-0.01709	-0.043945	0.034637	-0.033417	0.39459	0.21057	0.023804	-0.0383	-0.003815	0.018768	0.003204	0.000916	-0.002441
36.333	0.005951	0.072327	0.030975	-0.010223	-0.003967	0.001373	0.024872	0.006866	-0.007782	-0.10361	-0.000305	0.004272	0.012512	0.17868	0.0177	-0.044403	0.04303	-0.14481	-0.2272	-0.037842	-0.05127	0.003967	0.035706	0.27374	0.24857	-0.001678	-0.003815	0.00885	-0.02655	0.000153	-0.000763	-0.005493
36.334	0.002136	0.047607	0.050964	0.001221	0.001526	-0.031586	0.030975	0.006866	-0.003815	-0.10391	0.003662	0.000458	-0.000458	0.11581	0.019836	-0.038605	0.033569	-0.12573	-0.3305	-0.084229	-0.20096	0.074768	-0.017242	0.20691	0.22186	-0.031738	0.004883	-0.001526	-0.054932	-0.047913	0.000305	-0.015564
36.335	0.010376	0.064545	0.00824	-0.001373	0.011597	-0.014801	-0.00412	0.007782	0.002747	-0.10071	-0.003815	0.01236	-0.10101	0.041656	0.020294	-0.005646	-0.010986	-0.008545	-0.27496	-0.13001	-0.13138	0.18707	-0.053101	0.20248	0.16007	-0.036621	0.002594	-0.002594	-0.032654	-0.039063	0.001678	-0.007324
36.336	-0.009918	0.046539	-0.029144	0.002594	-0.014343	0.010681	0.013733	0.005798	-0.003967	0.004272	0.005188	0.001526	-0.13534	0.026398	0.008087	-0.093079	-0.041504	0.079651	-0.29144	-0.07309	0.21713	0.11276	-0.085449	0.10178	0.12375	-0.026703	-0.007324	0.001526	0.036316	-0.046844	-0.00061	-0.01709
36.337	-0.000305	0.077057	-0.007324	-0.018921	-0.038147	0.029297	0.007324	0.006104	-0.011292	0.10391	-0.000458	-0.003967	-0.050354	0.094299	0.009155	-0.52551	-0.023651	0.12085	-0.3537	0.032043	0.35675	-0.001221	-0.12344	-0.081024	-0.03479	-0.00412	-0.006104	-0.002441	0.0177	-0.071259	0.002136	-0.021362
36.338	0.003357	0.059052	0.021667	-0.007172	-0.030518	0.023499	0.007172	0.011597	-0.007172	0.030365	-0.007172	-0.038757	-0.0354	0.26062	0.016022	0.1059	0.009613	0.19501	-0.22217	0.042114	0.047607	0.00351	-0.04364	-0.12375	-0.35294	-0.001068	0.00946	-0.007782	-0.13473	-0.059509	0.000916	-0.010223
36.339	0.010071	0.072937	0.046234	0.020447	0.032806	0.043793	0.022278	0.006561	-0.017395	-0.18539	-0.008545	-0.054169	0.14526	0.44647	0.030212	0.010834	0.045013	0.15182	-0.41733	0.004425	-0.089264	0.068054	-0.021362	-0.27557	-0.32379	0.005341	0.039368	-0.001526	-0.15961	-0.02182	-0.001984	-0.017395
36.34	0.008698	0.042114	-0.009766	0.013428	0.053101	0.020599	0.003967	0.007629	-0.000916	-0.075684	-0.000763	0.12878	0.13016	0.19211	0.032349	0.44113	0.055847	0.10193	-0.4335	-0.06424	-0.36926	0.29617	0.005035	-0.33157	-0.11597	0.003815	0.031586	-0.00946	-0.14633	-0.037689	0.005951	-0.009155
36.341	0.009003	0.036316	-0.006104	0.00885	0.022278	0.019989	0.010681	0.002441	0.006561	0.11902	0.001831	0.041504	-0.017853	0.21454	0.017395	-0.12116	0.055237	0.11276	-0.19287	-0.055237	-0.34241	0.39902	0.095367	-0.33203	-0.079956	0.005188	-0.003662	-0.009766	0.32791	-0.020905	-0.00351	-0.001526
36.342	0.003815	0.052185	0.007477	-0.026245	0.010071	0.031891	-0.006104	0.018005	-0.003662	0.29923	-0.007172	0.071716	-0.1004	0.24643	-0.004272	-0.12726	-0.013123	0.22232	0.18158	-0.001831	-0.13275	0.32623	0.063934	-0.2034	-0.078278	-0.002594	-0.005341	-0.014496	-0.057373	0.029297	-0.002899	-0.007172
36.343	0.001678	0.052948	0.020599	0.001984	0.002441	0.041962	-0.007172	-0.011902	-0.005188	0.30273	-0.001068	-0.048065	-0.001221	0.09201	-0.010681	0.018158	-0.034637	0.22095	0.076599	0.12528	-0.087433	0.042419	0.022736	-0.17593	-0.065918	0.003052	0.038757	-0.010376	0.022888	-0.013123	0.00061	-0.001831
36.344	0.004578	0.041962	0.00061	0.012665	-0.007935	0.088806	0.007935	-0.004883	-0.004578	0.091095	-0.019073	-0.11795	0.19653	0.07019	-0.039978	0.2507	-0.041504	0.28183	-0.31952	0.26749	0.24719	-0.13245	0.040588	-0.12222	-0.027313	-0.005798	-0.003662	0.00824	0.57434	-0.079346	0.000916	-0.001068
36.345	0.002289	0.031586	0.015106	-0.00061	-0.021667	0.091095	-0.012207	0.00061	0.001221	-0.001526	-0.00473	0.036163	0.12695	-0.65643	-0.052643	0.1947	-0.047455	0.26733	-0.23727	0.21988	0.24643	-0.21179	0.096741	-0.16373	-0.0177	-0.010681	-0.068665	0.009308	-0.5513	-0.13763	-0.002899	-0.002441
36.346	0.001526	0.038452	0.060425	0.001221	-0.030823	0.028839	-0.003204	-0.000153	0.003204	-0.051575	-0.011749	0.051117	0.041656	-1.5112	-0.015717	-0.066833	-0.040283	0.28091	-0.12222	0.040436	0.018463	-0.097046	0.06134	-0.020142	0.022888	-0.017242	0.054016	0.008392	-0.56198	-0.063019	-0.002747	-0.001373
36.347	-0.000153	0.019684	0.038757	0.000916	-0.021667	-0.018158	0.000153	-0.005341	0.004578	0.021515	-0.006256	0.034943	0.044708	-1.2236	0.009003	0.091553	-0.042877	0.23987	0.18616	0.021973	-0.089417	0.01358	0.096588	0.070648	0.026855	0.004272	0.095673	-0.002747	0.22888	-0.019531	-0.001678	-0.001831
36.348	0.000153	0.041046	0.030975	0.00351	-0.010071	-0.046082	-0.006256	-0.001831	0.011749	0.04776	-0.003967	-0.005798	0.022278	-0.34347	0.010681	-0.14801	-0.047607	0.18249	0.17639	0.003815	-0.12161	-0.003052	0.059357	0.08606	0.037994	0.024414	0.054169	-0.001984	-0.36163	-0.14435	-0.000305	-0.009003
36.349	-0.005951	0.014191	0.003815	0.004272	-0.008087	-0.11002	0.013885	-0.002441	0.002441	0.005188	-0.011444	0.000305	0.018616	0.1152	-0.006256	-0.082245	-0.053864	0.11078	0.050354	0.048828	-0.22018	-0.067749	0.071716	0.075684	0.025635	0.015869	-0.085144	0.000305	0.23239	-0.094452	-0.002899	-0.006256
36.35	-0.007172	0.051575	-0.001984	-0.008698	0.014648	-0.16892	0.006104	0.003815	0.015106	-0.03418	-0.011292	0.031586	0.034943	-0.019989	-0.013885	0.067444	-0.035248	0.074463	-0.16007	0.064697	-0.37308	-0.22324	0.070953	0.089417	0.015106	0.00946	-0.11063	-0.002136	-0.31784	-0.073853	0.003662	-0.004272
36.351	-0.00885	0.044708	0.00885	0.017242	0.051422	-0.094604	0.002899	0.010071	0.006409	-0.015564	-0.005951	-0.007324	0.033569	0.18494	-0.002136	-0.072784	-0.02655	0.010834	-0.095673	0.005493	-0.19699	-0.21057	0.076141	0.051422	0.019684	0.009308	-0.14069	-0.003662	0.39627	0.019379	-0.002289	0.002594
36.352	-0.005188	0.056	0.005951	0.002747	0.037537	0.068817	0.007629	0.004272	0.007629	-0.0383	-0.011597	-0.007477	0.005035	0.20584	0.01236	-0.12756	-0.024719	0.020905	-0.030212	-0.073242	0.15778	-0.060883	0.004883	0.091858	0.032806	0.009766	-0.10101	-0.00061	0.31128	-0.06134	-0.001831	-0.011902
